<?xml version="1.0" standalone="no"?><!DOCTYPE svg PUBLIC "-//W3C//DTD SVG 1.1//EN" "http://www.w3.org/Graphics/SVG/1.1/DTD/svg11.dtd"><svg t="1686296810014" class="icon" viewBox="0 0 1093 1024" version="1.1" xmlns="http://www.w3.org/2000/svg" p-id="29788" xmlns:xlink="http://www.w3.org/1999/xlink" width="213.4765625" height="200"><path d="M275.60424 853.098816h57.346421a58.168365 58.168365 0 0 0 59.179988-56.903835V502.381513a58.105138 58.105138 0 0 0-59.179988-56.903835h-57.346421a58.105138 58.105138 0 0 0-59.179988 56.903835v293.939921a58.105138 58.105138 0 0 0 59.179988 56.777382zM571.18805 853.098816h57.34642a58.168365 58.168365 0 0 0 59.179988-56.903835V140.34667a58.105138 58.105138 0 0 0-59.179988-56.903835h-57.34642a58.105138 58.105138 0 0 0-59.179989 56.903835V796.321434a58.105138 58.105138 0 0 0 59.179989 56.777382zM872.525469 853.098816h57.34642a58.105138 58.105138 0 0 0 59.179989-56.903835V337.992657a58.105138 58.105138 0 0 0-59.179989-56.903835H872.525469a58.105138 58.105138 0 0 0-59.179988 56.903835v458.328777a58.105138 58.105138 0 0 0 59.179988 56.777382z" fill="#8BAEF7" p-id="29789"></path><path d="M1033.563322 910.065877H118.233524V56.445127a59.179988 59.179988 0 0 0-118.233524 0v910.461359a58.105138 58.105138 0 0 0 59.179988 56.903835h979.188546a56.903835 56.903835 0 1 0-4.805212-113.80767z" fill="#467CFD" p-id="29790"></path></svg>