<?xml version="1.0" standalone="no"?><!DOCTYPE svg PUBLIC "-//W3C//DTD SVG 1.1//EN" "http://www.w3.org/Graphics/SVG/1.1/DTD/svg11.dtd"><svg t="1686296702538" class="icon" viewBox="0 0 1024 1024" version="1.1" xmlns="http://www.w3.org/2000/svg" p-id="24580" xmlns:xlink="http://www.w3.org/1999/xlink" width="200" height="200"><path d="M524.4 490.3m-260.9 0a260.9 260.9 0 1 0 521.8 0 260.9 260.9 0 1 0-521.8 0Z" fill="#FFD500" p-id="24581"></path><path d="M500 229.5c-8.2 0-16.4 0.4-24.4 1.1C608.1 242.9 712 354.5 712 490.3S608.1 737.7 475.5 750.1c8 0.7 16.2 1.1 24.4 1.1 144.1 0 260.9-116.8 260.9-260.9S644 229.5 500 229.5z" fill="#FFB600" p-id="24582"></path><path d="M500 490.3m-147.7 0a147.7 147.7 0 1 0 295.4 0 147.7 147.7 0 1 0-295.4 0Z" fill="#EF8686" p-id="24583"></path><path d="M500 490.3m-16.9 0a16.9 16.9 0 1 0 33.8 0 16.9 16.9 0 1 0-33.8 0Z" fill="#7BD721" p-id="24584"></path><path d="M741.9 199.7c-22.5-2.3-43.7 5.1-59.6 18.6 30.6 43.2 70.5 79.6 117 106.2 7.5-10.8 12.5-23.5 13.9-37.5 4.4-43.8-27.5-82.9-71.3-87.3z" fill="#00B1FF" p-id="24585"></path><path d="M719.4 199.7c-7.9-0.8-15.7-0.4-23.1 1 40.1 7.6 68.5 44.8 64.3 86.2-0.8 8.4-3 16.3-6.1 23.7 7.3 4.9 14.7 9.5 22.3 13.9 7.5-10.8 12.5-23.5 13.9-37.5 4.4-43.8-27.6-82.9-71.3-87.3z" fill="#0091F1" p-id="24586"></path><path d="M304.2 199.7c22.5-2.3 43.7 5.1 59.6 18.6-30.6 43.2-70.5 79.6-117 106.2-7.5-10.8-12.5-23.5-13.9-37.5-4.4-43.8 27.5-82.9 71.3-87.3z" fill="#00B1FF" p-id="24587"></path><path d="M281.6 199.7c-3 0.3-6 0.8-8.9 1.4 12.9 2.8 24.8 8.8 34.6 17.2-24.9 35.1-55.9 65.8-91.7 90.3 2.3 5.6 5.1 11 8.6 15.9 46.5-26.6 86.4-63 117-106.2-15.9-13.5-37.1-20.8-59.6-18.6z" fill="#0091F1" p-id="24588"></path><path d="M500 342.7c-10.3 0-20.4 1.1-30.1 3.1 67.1 13.9 117.6 73.4 117.6 144.6S537 621 469.9 634.9c9.7 2 19.8 3.1 30.1 3.1 81.6 0 147.7-66.1 147.7-147.7S581.5 342.7 500 342.7z" fill="#E26060" p-id="24589"></path><path d="M577.4 879.6h-184c-4.4 0-8-3.6-8-8s3.6-8 8-8h184c4.4 0 8 3.6 8 8 0 4.5-3.6 8-8 8zM366.7 879.6h-28c-4.4 0-8-3.6-8-8s3.6-8 8-8h28c4.4 0 8 3.6 8 8 0 4.5-3.6 8-8 8zM715.8 879.6h-98c-4.4 0-8-3.6-8-8s3.6-8 8-8h98c4.4 0 8 3.6 8 8 0 4.5-3.6 8-8 8zM311 879.6h-4c-4.4 0-8-3.6-8-8s3.6-8 8-8h4c4.4 0 8 3.6 8 8 0 4.5-3.6 8-8 8z" fill="#AD98C7" p-id="24590"></path><path d="M479 928.1h-28c-4.4 0-8-3.6-8-8s3.6-8 8-8h28c4.4 0 8 3.6 8 8s-3.6 8-8 8zM603.5 928.1h-98c-4.4 0-8-3.6-8-8s3.6-8 8-8h98c4.4 0 8 3.6 8 8s-3.6 8-8 8zM423.2 928.1h-4c-4.4 0-8-3.6-8-8s3.6-8 8-8h4c4.4 0 8 3.6 8 8s-3.5 8-8 8z" fill="#EEEAF4" p-id="24591"></path><path d="M163.1 133.7c-3.7 1.2-7 3.2-9.8 5.6 3.7 1.1 6.8 4 8.1 7.9 2.1 6.4-1.4 13.4-7.8 15.5-3.3 1.1-6.7 0.7-9.6-0.8 0.1 2.3 0.6 4.7 1.3 7 4.8 14.6 20.6 22.6 35.2 17.8s22.6-20.6 17.8-35.2c-4.8-14.7-20.6-22.6-35.2-17.8z" fill="#B6EFFF" p-id="24592"></path><path d="M178.7 152.8c1 2.8 1.3 5.9 0.9 9.2-1.2 9-8.7 16.2-17.8 17.1-12.6 1.2-23.2-9.3-21.9-21.9 0.9-9 7.9-16.4 16.8-17.8 3.2-0.5 6.4-0.2 9.2 0.7 2.1 0.7 4.3 0.3 5.9-1.2l0.2-0.2c3.3-3 2.2-8.5-2.1-9.9-3.9-1.3-8-1.9-12.4-1.6-15.9 1.1-28.7 14-29.7 29.9-1.3 20.3 16.3 36.8 36.9 33.7 13.5-2 24.4-12.7 26.6-26.2 0.9-5.4 0.4-10.7-1.2-15.4-1.4-4.2-6.5-5.6-9.8-2.6-1.7 1.5-2.4 4-1.6 6.2z" fill="#5C3290" p-id="24593"></path><path d="M175.7 425.5m-8 0a8 8 0 1 0 16 0 8 8 0 1 0-16 0Z" fill="#4CC6F4" p-id="24594"></path><path d="M314.8 131m-8 0a8 8 0 1 0 16 0 8 8 0 1 0-16 0Z" fill="#5C3390" p-id="24595"></path><path d="M948.3 326.4m-10 0a10 10 0 1 0 20 0 10 10 0 1 0-20 0Z" fill="#FFA819" p-id="24596"></path><path d="M563 111.3h-0.1c2.4 1.4 4.1 3.9 4.5 6.9 0.7 5.2-3 10.1-8.2 10.8-4.2 0.6-8.1-1.7-9.9-5.3-0.5 1.9-0.6 4-0.3 6.1 1.2 9 9.5 15.2 18.4 14 9-1.2 15.2-9.5 14-18.4-1.2-9-9.4-15.3-18.4-14.1z" fill="#FFE404" p-id="24597"></path><path d="M795.7 99.1c-12.2 0-22 9.8-22 22s9.8 22 22 22 22-9.8 22-22-9.9-22-22-22z m0 30c-4.4 0-8-3.6-8-8s3.6-8 8-8 8 3.6 8 8-3.6 8-8 8z" fill="#5C3290" p-id="24598"></path><path d="M84.3 358c-9.9 0-18 8.1-18 18s8.1 18 18 18 18-8.1 18-18-8.1-18-18-18z m0 24.5c-3.6 0-6.5-2.9-6.5-6.5s2.9-6.5 6.5-6.5 6.5 2.9 6.5 6.5-2.9 6.5-6.5 6.5z" fill="#EEEAF4" p-id="24599"></path><path d="M873.7 384.1h14c2.8 0 5 2.2 5 5s-2.2 5-5 5h-14c-2.8 0-5-2.2-5-5s2.2-5 5-5zM891.3 410.5v-14c0-2.8 2.2-5 5-5s5 2.2 5 5v14c0 2.8-2.2 5-5 5s-5-2.3-5-5zM917.7 392.8h-14c-2.8 0-5-2.2-5-5s2.2-5 5-5h14c2.8 0 5 2.2 5 5s-2.3 5-5 5zM900.1 366.4v14c0 2.8-2.2 5-5 5s-5-2.2-5-5v-14c0-2.8 2.2-5 5-5 2.7 0 5 2.3 5 5z" fill="#AD98C7" p-id="24600"></path><path d="M880 186.4m-4.8 0a4.8 4.8 0 1 0 9.6 0 4.8 4.8 0 1 0-9.6 0Z" fill="#FCDDCC" p-id="24601"></path><path d="M916.2 183.9m-4.8 0a4.8 4.8 0 1 0 9.6 0 4.8 4.8 0 1 0-9.6 0Z" fill="#FCDDCC" p-id="24602"></path><path d="M896.4 170.1m-4.8 0a4.8 4.8 0 1 0 9.6 0 4.8 4.8 0 1 0-9.6 0Z" fill="#FCDDCC" p-id="24603"></path><path d="M898.1 203.1m-4.8 0a4.8 4.8 0 1 0 9.6 0 4.8 4.8 0 1 0-9.6 0Z" fill="#FCDDCC" p-id="24604"></path><path d="M876 159.9l14.8 14.8c1.6 1.6 1.6 4.1 0 5.7-1.6 1.6-4.1 1.6-5.7 0l-14.8-14.8c-1.6-1.6-1.6-4.1 0-5.7 1.6-1.6 4.1-1.6 5.7 0zM870.4 207.4l14.8-14.8c1.6-1.6 4.1-1.6 5.7 0 1.6 1.6 1.6 4.1 0 5.7L876 213c-1.6 1.6-4.1 1.6-5.7 0-1.5-1.5-1.5-4.1 0.1-5.6zM919.4 212.2l-14.8-14.8c-1.6-1.6-1.6-4.1 0-5.7 1.6-1.6 4.1-1.6 5.7 0l14.8 14.8c1.6 1.6 1.6 4.1 0 5.7-1.6 1.5-4.1 1.5-5.7 0zM923.4 163.9l-14.8 14.8c-1.6 1.6-4.1 1.6-5.7 0-1.6-1.6-1.6-4.1 0-5.7l14.8-14.8c1.6-1.6 4.1-1.6 5.7 0 1.6 1.6 1.6 4.1 0 5.7z" fill="#FCDDCC" p-id="24605"></path><path d="M441.5 158.3l-7.1-7.1c-1.6-1.6-1.6-4.1 0-5.7 1.6-1.6 4.1-1.6 5.7 0l7.1 7.1c1.6 1.6 1.6 4.1 0 5.7-1.6 1.6-4.1 1.6-5.7 0zM440.3 170.4h-10c-2.2 0-4-1.8-4-4s1.8-4 4-4h10c2.2 0 4 1.8 4 4s-1.8 4-4 4zM448 179.9l-7.1 7.1c-1.6 1.6-4.1 1.6-5.7 0-1.6-1.6-1.6-4.1 0-5.7l7.1-7.1c1.6-1.6 4.1-1.6 5.7 0 1.5 1.6 1.5 4.1 0 5.7zM460.1 181.1v10c0 2.2-1.8 4-4 4s-4-1.8-4-4v-10c0-2.2 1.8-4 4-4s4 1.8 4 4zM469.5 173.4l7.1 7.1c1.6 1.6 1.6 4.1 0 5.7-1.6 1.6-4.1 1.6-5.7 0l-7.1-7.1c-1.6-1.6-1.6-4.1 0-5.7 1.6-1.5 4.2-1.5 5.7 0zM470.8 161.3h10c2.2 0 4 1.8 4 4s-1.8 4-4 4h-10c-2.2 0-4-1.8-4-4s1.8-4 4-4zM463.1 151.9l7.1-7.1c1.6-1.6 4.1-1.6 5.7 0 1.6 1.6 1.6 4.1 0 5.7l-7.1 7.1c-1.6 1.6-4.1 1.6-5.7 0-1.6-1.6-1.6-4.2 0-5.7zM451 150.6v-10c0-2.2 1.8-4 4-4s4 1.8 4 4v10c0 2.2-1.8 4-4 4s-4-1.8-4-4z" fill="#7BD721" p-id="24606"></path><path d="M624.7 831.2h-384c-4.4 0-8-3.6-8-8s3.6-8 8-8h384c4.4 0 8 3.6 8 8s-3.6 8-8 8zM196.9 831.2h-28c-4.4 0-8-3.6-8-8s3.6-8 8-8h28c4.4 0 8 3.6 8 8s-3.5 8-8 8zM887.3 831.2h-98c-4.4 0-8-3.6-8-8s3.6-8 8-8h98c4.4 0 8 3.6 8 8s-3.6 8-8 8zM712.5 831.2h-44c-4.4 0-8-3.6-8-8s3.6-8 8-8h44c4.4 0 8 3.6 8 8s-3.5 8-8 8zM141.2 831.2h-4c-4.4 0-8-3.6-8-8s3.6-8 8-8h4c4.4 0 8 3.6 8 8s-3.6 8-8 8zM752.1 831.2h-4c-4.4 0-8-3.6-8-8s3.6-8 8-8h4c4.4 0 8 3.6 8 8s-3.6 8-8 8z" fill="#5C3290" p-id="24607"></path></svg>