<?xml version="1.0" standalone="no"?><!DOCTYPE svg PUBLIC "-//W3C//DTD SVG 1.1//EN" "http://www.w3.org/Graphics/SVG/1.1/DTD/svg11.dtd"><svg t="1687973501601" class="icon" viewBox="0 0 1024 1024" version="1.1" xmlns="http://www.w3.org/2000/svg" p-id="4736" xmlns:xlink="http://www.w3.org/1999/xlink" width="200" height="200"><path d="M772.997422 6.128913h-573.289135c-47.522652 0-85.899079 38.376427-85.899079 85.89908v781.955064c0 47.522652 38.376427 85.899079 85.899079 85.899079h573.289135c47.522652 0 85.899079-38.282136 85.899079-85.899079V92.027993c0-47.522652-38.376427-85.899079-85.899079-85.89908z" fill="#1989FA" p-id="4737"></path><path d="M687.098343 254.491344H269.672192c-18.481031 0-33.001842-14.52081-33.001842-33.001841s14.52081-33.001842 33.001842-33.001842h417.426151c18.481031 0 33.001842 14.52081 33.001841 33.001842s-14.52081 33.001842-33.001841 33.001841zM687.098343 368.111971H269.672192c-18.481031 0-33.001842-14.52081-33.001842-33.001842s14.52081-33.001842 33.001842-33.001842h417.426151c18.481031 0 33.001842 14.52081 33.001841 33.001842s-14.52081 33.001842-33.001841 33.001842zM376.598158 480.412523H269.672192c-18.481031 0-33.001842-14.52081-33.001842-33.001842s14.52081-33.001842 33.001842-33.001841h107.020257c18.481031 0 33.001842 14.52081 33.001842 33.001841s-14.52081 33.001842-33.096133 33.001842zM322.475138 593.938858h-51.577164c-18.481031 0-33.001842-14.52081-33.001841-33.001841s14.52081-33.001842 33.001841-33.001842H322.475138c18.481031 0 33.001842 14.52081 33.001842 33.001842s-14.52081 33.001842-33.001842 33.001841zM886.523757 570.177532h-31.87035v-48.27698c0-15.369429-11.786372-27.155801-27.155801-27.155801H460.894291c-15.369429 0-27.155801 11.786372-27.155801 27.155801v145.019522c0 15.369429 11.786372 27.155801 27.155801 27.155801h366.603315c15.369429 0 27.155801-11.786372 27.155801-27.155801v-42.43094h4.714549v103.625783H643.535912c-15.369429 0-27.155801 11.786372-27.155802 27.155801v61.289135H589.3186c-15.369429 0-27.155801 11.786372-27.155801 27.155801V972.139963c0 28.287293 23.572744 51.860037 51.860037 51.860037h61.289135c28.287293 0 51.860037-23.572744 51.860036-51.860037V843.621363c0-15.369429-11.786372-27.155801-27.155801-27.155801H669.46593v-34.133334h215.643462c15.369429 0 27.155801-11.786372 27.155801-27.155801V597.239042c1.320074-14.143646-11.692081-27.06151-25.741436-27.06151z" fill="#BADCFE" p-id="4738"></path></svg>