<?xml version="1.0" standalone="no"?><!DOCTYPE svg PUBLIC "-//W3C//DTD SVG 1.1//EN" "http://www.w3.org/Graphics/SVG/1.1/DTD/svg11.dtd"><svg t="1686636002111" class="icon" viewBox="0 0 1024 1024" version="1.1" xmlns="http://www.w3.org/2000/svg" p-id="12814" xmlns:xlink="http://www.w3.org/1999/xlink" width="200" height="200"><path d="M752.566857 182.857143a146.285714 146.285714 0 0 1 146.285714 146.285714v365.714286a146.285714 146.285714 0 0 1-146.285714 146.285714H375.442286a146.285714 146.285714 0 0 1-104.777143-44.251428l-202.971429-208.347429a109.714286 109.714286 0 0 1 0-153.088L270.628571 227.072A146.285714 146.285714 0 0 1 375.442286 182.857143h377.124571z m0 54.857143H375.442286a91.428571 91.428571 0 0 0-65.462857 27.648l-202.971429 208.347428a54.857143 54.857143 0 0 0 0 76.580572l202.971429 208.347428a91.428571 91.428571 0 0 0 65.462857 27.648h377.124571a91.428571 91.428571 0 0 0 91.428572-91.428571V329.142857a91.428571 91.428571 0 0 0-91.428572-91.428571z m-73.874286 122.221714l3.108572 2.633143a27.428571 27.428571 0 0 1 2.633143 35.730286l-2.633143 3.072-109.933714 109.897142 109.933714 109.897143a27.428571 27.428571 0 0 1-38.802286 38.802286l-109.933714-109.897143-109.860572 109.897143a27.428571 27.428571 0 0 1-35.730285 2.669714l-3.072-2.669714a27.428571 27.428571 0 0 1-2.669715-35.693714l2.669715-3.108572 109.860571-109.897143-109.860571-109.897142a27.428571 27.428571 0 0 1 38.765714-38.765715l109.897143 109.860572 109.933714-109.897143a27.428571 27.428571 0 0 1 35.730286-2.633143z" fill="#222222" p-id="12815"></path></svg>