<?xml version="1.0" standalone="no"?><!DOCTYPE svg PUBLIC "-//W3C//DTD SVG 1.1//EN" "http://www.w3.org/Graphics/SVG/1.1/DTD/svg11.dtd"><svg class="icon" width="200px" height="200.00px" viewBox="0 0 1024 1024" version="1.1" xmlns="http://www.w3.org/2000/svg"><path d="M197.7 703.8c2 1.9 19.2 15.2 105 24.7 53.9 6 124.9 9.3 199.8 9.3 79.1 0 151.2-3.4 208.4-9.9C794.1 718.5 817 706 823 701.1c0.1-0.1 0.2-0.1 0.3-0.2-1.2-3-6-11.7-25.7-26.4-14.2-10.6-33.2-21.8-51.1-30.3a30.08 30.08 0 0 1-21.4-22.4l-0.7-3.2V429.1c-2.2-85.5-54.6-161.9-133.7-194.7l-2.4-1.1-0.6-0.4c-7.8-3.5-29.9-6.7-39.5-15.8l-2.2-2.3c-4.3-4.4-8.5-9.4-10.5-16.5l-1.1-3.9V165c-0.3-6.2-2.9-11.9-7.5-16.1-4.5-4.2-10.5-6.5-16.7-6.4-13.9 1.1-25.2 12.2-26.5 26.1v25.1c0 8.2-2.4 15.7-7 21.5l-0.2 0.3c-4.8 6.1-11.8 10-19.5 10.8-93.7 23-160.7 106-163.3 202.8v189.5l-0.7 3.2c-2.5 11-10.8 19.5-21.4 22.4-16.2 7.8-34 18.9-48 30.2-18.6 14.8-25 25.4-25.9 29.4z" fill="#A2D2FC" /><path d="M898.5 689.5v-0.1c-3-36.4-31.6-67.7-95.7-104.8l-1-0.6V425c-1.7-115.4-71.9-218.3-178.8-262.1l-14.4-3.7-0.1-1.5c-3-51.3-45.6-91.6-97.1-91.6h-1c-49.6 0-91.1 38.8-94.4 88.3l-0.1 1.3-1.2 0.4c-112.8 40.8-189.9 148.8-192 268.8v155.8l-1 0.6c-79.8 43.2-90.1 79-95.6 98.3l-0.1 0.5c-3.4 23.5 3.4 47.5 18.9 65.6l0.1 0.1c17.3 18.8 56.6 33.2 116.8 42.8 60.4 9.6 143.1 14.5 245.7 14.5 54.1 0 133.7-1.5 205.2-8.8 83-8.5 137.1-22.7 160.8-42.3 18.3-15.3 27.7-38.7 25-62.5z m-58 27c-17 13.9-59.1 24.8-125.1 32.3-58.2 6.6-131.2 10.1-211.3 10.1-138.2 0-295.8-11.2-323.7-42.6-5.3-6-7.3-13.4-5.6-21.4 5.9-28.1 56.2-62.8 90-78.4l0.3-0.1h0.4c2.2-0.2 4-1.8 4.5-3.9l0.1-0.4v-187C272.9 316 349 222.5 455.3 197.7l0.2-0.1s4.8-2.2 4.7-7.7v-26c1.8-26.8 23.4-48.3 50.1-50.1h0.1c13-0.5 25.5 4.2 34.9 13.1 9.5 8.9 15 20.9 15.4 33.9v26.4s0.1 4.7 4.5 6.5c0 0 25.4 7.8 36 13.7l0.4 0.2c88.3 36.6 146.8 122 149.1 217.5v187l0.1 0.4c0.5 2.2 2.3 3.8 4.5 3.9h0.3l0.3 0.1c20.1 9.3 41.7 22 57.8 34 22.2 16.5 34.3 31.5 35.9 44.4 1.5 8.3-1.7 15.6-9.1 21.6z" fill="#0773FF" /><path d="M695.5 393.1c-3.1-21.9-11.9-42.7-25.3-60.2l-0.2-0.3c-12.5-19.5-31.6-34-53.6-41h-0.1c-11.1-3.9-22.7-6-34.5-6.3h-0.4c-12.6 1-22.5 10.8-23.6 23.4v0.6c1.1 12.5 11.3 22.6 23.9 23.4 12.3 0.9 23.8 5.5 33.3 13.3l0.1 0.1c18.7 14.1 30.7 35.5 32.9 58.8v0.4l0.1 0.3c3 10.6 12.8 18.1 23.8 18.1 1.9 0 3.9-0.2 5.8-0.7l0.3-0.1c6.6-1.1 12.3-4.9 15.7-10.6 3.4-5.7 4.2-12.6 2-18.9l-0.2-0.3zM591.2 829.7h-0.4c-6.3 0-12.2 2.4-16.6 6.9-4.4 4.4-7 10.6-6.9 16.9 0.1 15-5.9 29.7-16.5 40.3-10.7 10.7-24.8 16.5-39.9 16.5h-0.4c-15.4 0.7-30-5.1-40.8-15.9-10.7-10.7-16.5-25.5-15.9-40.6v-0.4c-1-12.5-10.9-22.4-23.4-23.5h-0.6c-12.4 1.1-22.5 11.2-23.4 23.6v0.4c0.1 57.4 46.9 104.1 104.3 104.1S614.9 911.3 615 853.9v-0.3c-1-12.7-11.2-22.9-23.8-23.9z" fill="#0773FF" /></svg>