<?xml version="1.0" standalone="no"?><!DOCTYPE svg PUBLIC "-//W3C//DTD SVG 1.1//EN" "http://www.w3.org/Graphics/SVG/1.1/DTD/svg11.dtd"><svg t="1686315013104" class="icon" viewBox="0 0 1024 1024" version="1.1" xmlns="http://www.w3.org/2000/svg" p-id="46317" xmlns:xlink="http://www.w3.org/1999/xlink" width="200" height="200"><path d="M607.925059 855.331772v89.530055c0 16.786885 13.589383 29.576893 29.576893 29.576893h44.765027c15.98751 0 29.576893-13.589383 29.576893-29.576893V855.331772H607.925059z m-295.768931 90.32943c0 16.786885 13.589383 29.576893 29.576893 29.576893h44.765027c15.98751 0 29.576893-13.589383 29.576893-29.576893V855.331772H312.156128v90.32943z" fill="#D7AEA1" p-id="46318"></path><path d="M655.887588 639.50039v329.342701c0 30.376269 23.981265 55.156909 54.357533 55.156909h27.178767c30.376269 0 54.357533-24.78064 54.357533-55.156909V639.50039H655.887588z m-423.669009 329.342701c0 30.376269 23.981265 55.156909 54.357533 55.156909h27.178767c30.376269 0 54.357533-24.78064 54.357533-55.156909V639.50039H232.218579v329.342701z" fill="#EFC2B3" p-id="46319"></path><path d="M232.218579 854.532397l135.893833 53.558157V734.626073l-135.893833-67.147541z m423.669009 50.360655l135.893833-53.558157V663.481655l-135.893833 67.147541z" fill="#D7AEA1" p-id="46320"></path><path d="M799.775176 464.437158l-65.54879-251.803278c-3.197502-12.790008-19.984387-16.786885-27.978142-6.395004L595.934426 334.938329c-2.398126 2.398126-1.598751 6.395004 1.598751 8.793131L791.781421 470.832162c3.996877 2.398126 8.79313-1.598751 7.993755-6.395004zM317.751756 205.4395a15.98751 15.98751 0 0 0-27.978142 6.395004L224.224824 464.437158c-1.598751 4.796253 3.996877 8.79313 8.793131 6.395004L427.266198 343.73146c3.197502-1.598751 3.197502-6.395004 1.598751-8.793131L317.751756 205.4395z" fill="#EFC2B3" p-id="46321"></path><path d="M711.044496 270.98829c-1.598751-7.993755-9.592506-9.592506-14.388758-3.996877l-55.956284 75.940671c-0.799375 1.598751-0.799375 3.996877 0.799375 4.796253L739.822014 423.669009c2.398126 1.598751 4.796253-0.799375 3.996877-3.996878l-32.774395-148.683841z m-383.700234-3.996877c-3.996877-5.595628-12.790008-3.996877-14.388758 3.996877L280.181109 419.672131c-0.799375 3.197502 2.398126 5.595628 3.996877 3.996878l98.323185-75.141296c1.598751-0.799375 1.598751-3.197502 0.799375-4.796253l-55.956284-76.740047z" fill="#CBA598" p-id="46322"></path><path d="M512 279.781421c180.65886 0 327.74395 147.08509 327.74395 327.74395s-147.08509 327.74395-327.74395 327.74395-327.74395-147.08509-327.74395-327.74395 147.08509-327.74395 327.74395-327.74395z" fill="#EFC2B3" p-id="46323"></path><path d="M519.993755 792.980484c-31.175644 0-55.956284 3.197502-55.956284 15.98751s24.78064 39.169399 55.956284 39.169399 55.956284-26.379391 55.956284-39.169399c0-13.589383-24.78064-15.98751-55.956284-15.98751z" fill="#A7877D" p-id="46324"></path><path d="M512 559.562842c-66.348165 0-119.906323 27.978142-119.906323 79.138173C392.093677 689.061671 445.651835 743.419204 512 743.419204s119.906323-54.357533 119.906323-104.718189c0-51.160031-53.558158-79.138173-119.906323-79.138173z" fill="#F5DAD1" p-id="46325"></path><path d="M551.968774 623.512881c-13.589383 0-23.981265 10.391881-23.981264 23.981264s10.391881 23.981265 23.981264 23.981265 23.981265-10.391881 23.981265-23.981265-10.391881-23.981265-23.981265-23.981264z m-79.937548 0c-13.589383 0-23.981265 10.391881-23.981265 23.981264s10.391881 23.981265 23.981265 23.981265 23.981265-10.391881 23.981264-23.981265-10.391881-23.981265-23.981264-23.981264z" fill="#CBA598" p-id="46326"></path><path d="M627.909446 447.650273C607.925059 447.650273 591.937549 463.637783 591.937549 483.62217s15.98751 35.971897 35.971897 35.971897 35.971897-15.98751 35.971897-35.971897-15.98751-35.971897-35.971897-35.971897z m-223.825137 0C384.099922 447.650273 368.112412 463.637783 368.112412 483.62217s15.98751 35.971897 35.971897 35.971897 35.971897-15.98751 35.971897-35.971897-15.98751-35.971897-35.971897-35.971897z" fill="#324D5B" p-id="46327"></path><path d="M635.903201 463.637783c-6.395004 0-11.990632 5.595628-11.990633 11.990632s5.595628 11.990632 11.990633 11.990633 11.990632-5.595628 11.990632-11.990633-5.595628-11.990632-11.990632-11.990632z m-223.825137 0c-6.395004 0-11.990632 5.595628-11.990632 11.990632s5.595628 11.990632 11.990632 11.990633 11.990632-5.595628 11.990632-11.990633-5.595628-11.990632-11.990632-11.990632z" fill="#95A3AA" p-id="46328"></path><path d="M502.407494 0h19.984387c7.993755 0 14.388759 6.395004 14.388759 14.388759v187.053864c0 7.993755-6.395004 14.388759-14.388759 14.388759h-19.984387c-7.993755 0-14.388759-6.395004-14.388759-14.388759V14.388759c0-7.993755 6.395004-14.388759 14.388759-14.388759z" fill="#EFC75E" p-id="46329"></path><path d="M488.018735 191.850117h47.96253v-23.981265h-47.96253v23.981265z m0-47.962529h47.96253v-23.981265h-47.96253v23.981265z m0-47.962529h47.96253V71.943794h-47.96253v23.981265z m0-71.943794v23.981264h47.96253V23.981265h-47.96253z" fill="#D7B355" p-id="46330"></path><path d="M272.187354 607.525371c0-166.270101 123.903201-302.96331 283.778298-324.546448-14.388759-1.598751-28.777518-3.197502-43.965652-3.197502-180.65886 0-327.74395 147.08509-327.74395 327.74395s147.08509 327.74395 327.74395 327.74395c15.188134 0 29.576893-0.799375 43.965652-3.197502C396.090554 910.488681 272.187354 773.795472 272.187354 607.525371z" fill="#E1B7A9" p-id="46331"></path><path d="M512 279.781421c-7.993755 0-15.98751 0-23.981265 0.799375v71.943794c0 12.790008 10.391881 22.382514 23.981265 22.382514 12.790008 0 23.981265-10.391881 23.981265-22.382514v-71.943794l-23.981265-0.799375z" fill="#BF9B8F" p-id="46332"></path></svg>