<?xml version="1.0" standalone="no"?><!DOCTYPE svg PUBLIC "-//W3C//DTD SVG 1.1//EN" "http://www.w3.org/Graphics/SVG/1.1/DTD/svg11.dtd"><svg t="1686377706675" class="icon" viewBox="0 0 1024 1024" version="1.1" xmlns="http://www.w3.org/2000/svg" p-id="3792" data-spm-anchor-id="a313x.7781069.0.i1" xmlns:xlink="http://www.w3.org/1999/xlink" width="200" height="200"><path d="M484.1 809.2c4 0 8-1.5 11.1-4.5l255.2-243.3c13.7-13 21.2-30.6 21.2-49.5s-7.5-36.4-21.2-49.5L495.2 219.2c-6.4-6.1-16.6-5.9-22.8 0.5s-5.9 16.6 0.5 22.8l255.2 243.3c7.2 6.9 11.2 16.2 11.2 26.1 0 10-4 19.3-11.2 26.1L473 781.5c-6.4 6.1-6.7 16.3-0.5 22.8 3.1 3.3 7.4 4.9 11.6 4.9z" fill="#2c2c2c" p-id="3793" data-spm-anchor-id="a313x.7781069.0.i3" class=""></path><path d="M268.4 531.7h360.2c8.9 0 16.1-7.2 16.1-16.1 0-8.9-7.2-16.1-16.1-16.1H268.4c-8.9 0-16.1 7.2-16.1 16.1 0 8.8 7.2 16.1 16.1 16.1z" fill="#f4ea2a" p-id="3794" data-spm-anchor-id="a313x.7781069.0.i2" class=""></path></svg>