<?xml version="1.0" standalone="no"?><!DOCTYPE svg PUBLIC "-//W3C//DTD SVG 1.1//EN" "http://www.w3.org/Graphics/SVG/1.1/DTD/svg11.dtd"><svg t="1686377828849" class="icon" viewBox="0 0 1024 1024" version="1.1" xmlns="http://www.w3.org/2000/svg" p-id="6089" xmlns:xlink="http://www.w3.org/1999/xlink" width="200" height="200"><path d="M144.719 442.194c14.64999999 0 27.404-9.959 31.00300001-24.16 15.338-60.52 46.667-116.006 91.84699999-161.31 66.17000001-66.34 154.14-102.88 247.7-102.88s181.52999999 36.54 247.7 102.88c51.13 51.27 84.52999999 115.58 97.08 185.47l64.86 0c-30.33-199.5-202.18-352.35-409.64-352.35-193.419 0-355.885 132.86-401.562 312.517-5.136 20.203 10.166 39.833 31.012 39.833zM162.868 814.637l0 74.58700001c0 17.67299999-14.327 32-32 31.99999999-17.67299999 0-32-14.327-32-32l0-74.587c0-17.67299999 14.327-32 32-32 17.674 0 32 14.327 32 32zM162.868 639.304l0 74.587c0 17.67299999-14.327 32-32 32-17.67299999 0-32-14.327-32-31.99999999l0-74.58700001c0-17.67299999 14.327-32 32-32 17.674 0 32 14.327 32 32zM368.9 888.3c0-17.67299999 14.327-32 32-32l51.732 0c17.67299999 0 32 14.327 32 32 0 17.67299999-14.327 32-32 32L400.9 920.3c-17.67299999 0-32-14.327-32-32zM421.929 763.616l0-60.683c0-17.67299999 14.327-32 32-32.00000001 17.67299999 0 32 14.327 32 32.00000001l0 60.683c0 17.67299999-14.327 32-32 32-17.67299999 0-32-14.327-32-32zM421.929 597.372l0-60.683c0-17.67299999 14.327-32 32-32 17.67299999 0 32 14.327 32 32l0 60.683c0 17.67299999-14.327 32-32 32-17.67299999 0-32-14.326-32-32zM609.401 921.224l256.867 0c35.346 0 64-28.654 64-64l0-288.535c0-35.346-28.654-64-64-64L609.401 504.689c-35.346 0-64 28.654-64 64L545.401 857.224c0 35.346 28.654 64 64 64z m256.867-352.535L866.268 857.224 609.401 857.224l0-288.53500001 256.867 1e-8z" p-id="6090"></path><path d="M866.269 378.194l-191.58 0c-17.67299999 0-32 14.327-32 32 0 17.67299999 14.327 32 32 32l255.58 0 0-257.82c0-17.67299999-14.327-32-32-32-17.67299999 0-32 14.327-32 32l0 193.82zM98.868 538.229c0-17.67299999 14.327-32 32-32l51.728 1e-8c17.67299999 0 32 14.327 32 31.99999999 0 17.67299999-14.327 32-32 32l-51.728 0c-17.67299999 0-32-14.326-32-32zM253.172 538.22899999c0-17.67299999 14.327-32 32-31.99999999L336.9 506.229c17.67299999 0 32 14.327 32 32 0 17.67299999-14.327 32-32 32l-51.728 0c-17.67299999 0-32-14.326-32-32.00000001zM214.596 888.3c0-17.67299999 14.327-32 32-32l51.728 0c17.67299999 0 32 14.327 32 32 0 17.67299999-14.327 32-32 32l-51.728 0c-17.67299999 0-32-14.327-32-32z" p-id="6091"></path></svg>